<svg xmlns="http://www.w3.org/2000/svg" width="1200" height="630" viewBox="0 0 1200 630">
  <rect width="1200" height="630" fill="#ffffff"/>
  <g stroke="#d8d8d8" stroke-width="1">
    <path d="M0 90h1200M0 180h1200M0 270h1200M0 360h1200M0 450h1200M0 540h1200"/>
    <path d="M120 0v630M240 0v630M360 0v630M480 0v630M600 0v630M720 0v630M840 0v630M960 0v630M1080 0v630"/>
  </g>
  <rect x="86" y="86" width="1028" height="458" rx="16" fill="#ffffff" stroke="#000000" stroke-width="4"/>
  <rect x="126" y="126" width="330" height="52" rx="24" fill="#8B5CF6" stroke="#000000" stroke-width="3"/>
  <text x="291" y="159" text-anchor="middle" font-family="Space Grotesk, Arial, sans-serif" font-size="22" font-weight="700" fill="#ffffff">Desenvolvedor Front-end</text>
  <text x="126" y="250" font-family="Space Grotesk, Arial, sans-serif" font-size="72" font-weight="700" fill="#000000">LEONARDO</text>
  <text x="126" y="332" font-family="Space Grotesk, Arial, sans-serif" font-size="72" font-weight="700" fill="#8B5CF6">LEAO</text>
  <text x="126" y="390" font-family="Space Grotesk, Arial, sans-serif" font-size="30" font-weight="500" fill="#202020">Engenharia de software, produto e execução orientada a resultado</text>
  <rect x="126" y="430" width="436" height="64" rx="8" fill="#000000" stroke="#000000" stroke-width="3"/>
  <text x="344" y="470" text-anchor="middle" font-family="Space Grotesk, Arial, sans-serif" font-size="25" font-weight="700" fill="#ffffff">github.com/leonardoleaoo</text>
</svg>
